<?xml version="1.0" standalone="no"?>
<!DOCTYPE svg PUBLIC "-//W3C//DTD SVG 20010904//EN"
 "http://www.w3.org/TR/2001/REC-SVG-20010904/DTD/svg10.dtd">
<svg version="1.0" xmlns="http://www.w3.org/2000/svg"
 width="604.000000pt" height="516.000000pt" viewBox="0 0 604.000000 516.000000"
 preserveAspectRatio="xMidYMid meet">

<g transform="translate(0.000000,516.000000) scale(0.100000,-0.100000)"
fill="#000000" stroke="none">
<path d="M2845 5069 c-185 -15 -365 -52 -558 -116 -74 -25 -104 -39 -95 -45 8
-6 4 -7 -12 -3 -18 4 -69 -17 -190 -78 -91 -46 -164 -88 -163 -95 2 -7 -4 -9
-14 -5 -10 4 -14 2 -10 -4 3 -5 1 -10 -6 -10 -22 0 -127 -75 -120 -86 3 -6 1
-7 -5 -3 -17 10 -138 -90 -278 -229 -135 -135 -177 -183 -169 -195 3 -5 0 -12
-6 -16 -8 -5 -9 -3 -4 7 7 12 6 12 -7 1 -9 -7 -53 -67 -98 -133 -71 -105 -80
-122 -68 -137 11 -15 11 -15 -3 -5 -14 11 -22 1 -63 -78 -41 -78 -46 -92 -34
-107 11 -15 11 -16 -3 -4 -15 11 -22 1 -62 -95 -54 -131 -80 -211 -72 -223 4
-6 2 -10 -3 -10 -11 0 -46 -135 -67 -254 -49 -281 -45 -605 10 -871 29 -140
77 -295 92 -295 7 0 13 -4 13 -10 0 -5 -4 -10 -10 -10 -5 0 -2 -20 7 -44 9
-25 20 -43 25 -40 4 3 5 -3 1 -12 -4 -12 -3 -15 5 -10 8 5 10 2 6 -8 -8 -21
103 -242 186 -370 75 -115 215 -296 229 -296 5 0 11 -9 14 -21 4 -13 10 -18
18 -13 7 4 10 3 6 -3 -8 -13 37 -56 47 -46 4 5 6 1 4 -7 -2 -8 3 -14 10 -12 8
1 11 -2 8 -7 -12 -20 355 -308 375 -295 5 3 8 1 7 -6 -2 -6 24 -25 57 -44 33
-18 85 -47 116 -64 44 -26 58 -29 69 -19 10 9 11 9 6 0 -22 -39 387 -176 655
-220 150 -24 543 -24 694 0 408 67 728 203 1078 460 58 43 65 52 55 66 -12 14
-11 14 5 2 16 -13 32 0 173 143 105 106 154 162 150 172 -3 8 -2 13 3 10 4 -3
17 5 28 17 33 36 133 184 133 196 0 6 3 11 8 11 12 0 42 61 35 72 -3 6 -1 8 5
5 22 -15 154 274 215 473 75 240 102 432 101 700 -2 292 -36 495 -125 752 -25
71 -45 115 -52 111 -6 -4 -7 -1 -3 6 9 15 -73 203 -86 195 -4 -3 -5 1 -2 9 3
8 -1 21 -8 28 -7 8 -24 35 -37 61 -14 26 -29 44 -34 41 -6 -3 -7 -1 -4 4 4 6
-12 39 -36 74 -70 104 -90 129 -100 122 -6 -3 -7 -1 -3 6 10 15 -134 181 -245
283 -165 152 -316 262 -346 252 -13 -4 -14 -3 -5 4 10 6 -5 20 -55 49 -115 69
-273 144 -285 137 -6 -4 -8 -3 -5 3 4 6 -1 13 -11 16 -9 3 -63 21 -119 41
-314 110 -636 152 -968 125z m545 -75 c58 -10 117 -18 132 -18 14 -1 24 -4 21
-8 -2 -5 5 -8 15 -8 11 0 65 -14 121 -30 56 -17 107 -27 114 -24 7 4 9 4 5 -1
-4 -4 34 -25 85 -45 51 -21 121 -52 155 -69 35 -17 68 -29 74 -25 6 4 8 3 5
-3 -8 -13 20 -26 35 -16 6 3 8 2 5 -4 -4 -5 6 -16 21 -24 32 -16 179 -115 204
-136 9 -8 22 -12 29 -7 7 4 10 3 6 -3 -4 -6 4 -18 17 -26 138 -91 402 -380
525 -574 18 -30 38 -50 44 -46 6 3 7 1 3 -5 -9 -15 24 -73 37 -65 6 3 7 1 4
-5 -4 -5 20 -66 53 -134 33 -67 60 -129 60 -136 0 -7 5 -10 12 -6 6 4 8 3 5
-3 -4 -6 7 -50 23 -99 81 -239 120 -476 120 -734 0 -370 -82 -714 -245 -1035
-30 -58 -53 -111 -51 -118 1 -7 1 -8 -2 -4 -2 5 -27 -27 -54 -70 -57 -88 -159
-222 -231 -301 -26 -29 -45 -58 -41 -64 4 -6 3 -8 -3 -5 -13 8 -119 -91 -115
-107 2 -6 0 -8 -4 -4 -7 8 -58 -29 -104 -74 -14 -14 -75 -59 -137 -101 -61
-41 -109 -77 -107 -80 2 -2 -2 -4 -8 -4 -7 0 -49 -20 -93 -44 -110 -60 -210
-104 -344 -150 -145 -50 -200 -64 -347 -89 -480 -83 -994 -9 -1408 201 -43 22
-85 38 -93 35 -8 -3 -12 -2 -9 3 5 7 -115 91 -130 91 -3 0 -21 12 -39 26 -20
15 -39 23 -46 18 -7 -4 -9 -3 -6 3 4 6 -10 23 -31 39 -20 15 -62 49 -93 76
-31 26 -59 44 -63 40 -4 -4 -6 -2 -4 3 2 6 0 10 -3 10 -3 0 -20 17 -39 38 -19
22 -39 36 -47 33 -8 -3 -11 -1 -8 4 9 15 -74 112 -88 103 -7 -3 -9 -2 -4 2 4
5 -6 22 -21 39 -71 76 -257 351 -293 434 -8 17 -17 32 -21 32 -5 0 -8 6 -8 14
0 7 -14 44 -31 82 -18 38 -46 111 -64 161 -17 51 -36 89 -40 85 -5 -4 -5 -1
-1 6 4 7 1 36 -7 65 -53 188 -78 375 -78 597 -1 263 30 469 106 708 14 45 23
88 19 95 -4 6 -4 9 1 5 11 -11 47 72 40 91 -3 8 -3 12 0 9 10 -9 135 243 128
256 -3 6 -2 8 2 3 7 -6 98 121 103 146 1 4 10 15 20 25 9 11 24 28 32 38 8 10
30 38 47 60 18 23 30 44 28 48 -3 3 -3 4 0 2 12 -8 117 113 109 125 -4 7 -3
10 4 5 6 -3 44 25 86 65 41 39 110 98 153 131 43 32 77 64 75 69 -1 6 2 7 8 4
6 -4 19 0 28 8 59 51 383 223 455 241 17 4 25 11 21 18 -4 6 -3 8 3 5 5 -3 61
9 124 29 132 40 230 64 265 64 17 0 23 4 18 12 -4 6 -3 8 2 5 6 -3 59 1 119 8
149 19 493 13 635 -11z m-1765 -433 c3 -5 2 -12 -3 -15 -5 -3 -9 1 -9 9 0 17
3 19 12 6z m3249 -419 c3 -5 -1 -9 -9 -9 -8 0 -12 4 -9 9 3 4 7 8 9 8 2 0 6
-4 9 -8z m-3768 -2640 c1 -7 0 -8 -2 -3 -3 6 -12 7 -20 4 -8 -3 -14 0 -14 7 0
15 33 9 36 -8z"/>
<path d="M2689 4973 c-9 -2 -21 -15 -27 -28 -10 -21 -9 -25 5 -25 9 0 22 8 29
18 11 14 16 15 33 5 12 -7 31 -13 43 -13 l22 0 -24 22 c-24 23 -51 29 -81 21z"/>
<path d="M2930 4842 c0 -38 -3 -103 -6 -145 l-7 -77 37 0 36 0 1 93 c1 144 8
147 60 21 l44 -109 58 -3 57 -3 0 146 0 145 -30 0 c-16 0 -30 -1 -30 -2 0 -2
-3 -50 -7 -108 -3 -58 -7 -106 -8 -108 -1 -1 -24 47 -50 108 l-48 110 -53 0
-54 0 0 -68z"/>
<path d="M2708 4887 c-102 -11 -95 6 -73 -172 8 -65 15 -121 15 -122 0 -6 58
-3 138 9 75 10 83 13 80 32 -3 19 -8 21 -74 18 l-71 -4 -6 29 c-7 36 -2 43 32
43 61 0 89 11 89 35 0 23 -2 23 -69 18 l-69 -6 0 31 c0 34 2 35 93 47 41 6 47
9 47 31 0 27 5 27 -132 11z"/>
<path d="M3470 4828 c-7 -24 -23 -83 -36 -132 -14 -49 -23 -94 -20 -101 2 -7
16 -15 29 -17 24 -5 27 -1 47 76 46 175 48 177 49 29 l1 -131 31 -7 c22 -5 34
-3 41 6 4 8 34 56 64 107 31 52 58 92 60 89 3 -3 -9 -56 -25 -118 -17 -62 -30
-113 -28 -114 1 -1 16 -5 33 -8 l30 -6 30 117 c16 64 28 125 26 135 -1 10 3
15 8 12 6 -3 10 -2 10 4 0 6 -19 15 -42 21 -24 6 -51 13 -60 16 -19 6 -43 -30
-32 -48 4 -6 3 -8 -3 -5 -6 4 -26 -23 -46 -61 l-36 -67 -1 107 0 106 -32 10
c-86 26 -86 26 -98 -20z"/>
<path d="M2473 4838 c-31 -8 -46 -28 -22 -28 5 0 8 -4 5 -9 -3 -5 9 -64 26
-131 l33 -121 35 6 c42 8 44 10 34 27 -4 7 -9 20 -9 28 -2 24 -57 224 -64 231
-3 3 -21 2 -38 -3z"/>
<path d="M2357 4803 c-9 -8 -13 -9 -41 -12 -12 -1 -13 -22 -10 -118 l5 -118
-22 25 c-12 14 -27 24 -33 22 -6 -2 -8 0 -4 3 6 6 -38 69 -78 112 -12 13 -54
6 -54 -9 0 -5 -4 -6 -10 -3 -25 16 -5 -20 46 -80 41 -48 59 -63 65 -54 6 10 8
8 7 -7 -2 -21 37 -78 59 -88 6 -3 30 2 52 11 l41 16 -1 61 c-2 120 -14 248
-22 239z"/>
<path d="M3870 4618 c-24 -57 -50 -114 -57 -127 -10 -21 -10 -26 5 -36 46 -31
48 -29 106 102 31 69 56 128 56 132 0 8 -44 31 -59 31 -4 0 -27 -46 -51 -102z"/>
<path d="M4037 4581 c-21 -31 -37 -62 -37 -68 0 -7 -5 -13 -11 -13 -6 0 -8 -7
-5 -17 4 -10 4 -14 0 -10 -4 4 -18 -9 -32 -29 l-25 -37 24 -18 c13 -10 27 -19
30 -19 4 0 32 43 64 95 32 53 59 94 62 92 2 -2 -3 -50 -12 -105 -21 -145 -21
-146 23 -168 20 -10 40 -23 43 -27 8 -11 91 131 84 143 -4 6 -2 9 4 8 6 -2 24
17 41 42 l30 45 -21 18 c-23 18 -46 18 -41 -2 1 -6 -3 -11 -9 -11 -7 0 -9 -10
-5 -24 3 -14 2 -28 -4 -31 -6 -3 -7 1 -4 9 3 9 2 16 -3 16 -5 0 -25 -27 -44
-60 -18 -33 -37 -60 -41 -60 -10 0 -10 -2 7 110 20 132 20 133 -21 155 -20 10
-41 20 -48 21 -7 1 -29 -24 -49 -55z"/>
<path d="M1838 4552 c-21 -14 -24 -21 -17 -35 6 -10 16 -14 22 -11 7 4 9 4 5
-1 -4 -4 1 -23 12 -40 l20 -32 -40 -27 c-22 -14 -42 -26 -44 -26 -9 0 -54 49
-50 53 3 2 -2 10 -10 16 -12 10 -21 9 -45 -5 l-29 -17 25 -38 c14 -21 30 -36
36 -32 6 3 7 1 3 -5 -4 -6 9 -32 28 -57 19 -25 43 -59 53 -75 20 -35 21 -35
53 -10 24 18 24 20 9 47 -9 15 -21 27 -27 26 -7 -2 -9 4 -5 14 4 9 2 14 -3 10
-6 -3 -10 2 -11 12 -1 15 83 80 91 70 5 -8 60 -84 62 -87 1 -2 11 1 21 7 46
27 47 27 23 59 -13 17 -28 28 -33 25 -6 -4 -7 -1 -2 7 4 7 4 15 -1 19 -5 3
-13 13 -19 22 -44 70 -87 129 -93 129 -4 0 -19 -8 -34 -18z m59 -137 c0 -8 -4
-12 -9 -9 -5 3 -6 10 -3 15 9 13 12 11 12 -6z"/>
<path d="M2740 4525 c0 -21 5 -25 30 -25 25 0 30 4 30 25 0 21 -5 25 -30 25
-25 0 -30 -4 -30 -25z"/>
<path d="M4320 4320 l-100 -104 24 -25 25 -25 50 47 c28 26 52 47 54 47 3 0
11 -8 18 -17 13 -16 12 -17 -3 -4 -32 24 -19 -6 13 -33 23 -19 29 -31 23 -44
-4 -9 -6 -21 -5 -27 2 -5 -1 -7 -5 -2 -4 4 -20 -5 -36 -20 l-28 -27 22 -23
c12 -13 25 -23 28 -23 9 0 32 21 123 116 79 82 85 98 47 122 -17 10 -24 7 -57
-23 -21 -19 -40 -35 -43 -35 -3 0 -23 14 -43 31 l-39 32 43 43 43 44 -27 28
-28 27 -99 -105z m219 -73 c-2 -1 -13 -9 -24 -17 -19 -14 -19 -14 -6 3 7 9 18
17 24 17 6 0 8 -1 6 -3z"/>
<path d="M1544 4319 c-18 -20 -18 -21 62 -100 83 -81 87 -87 37 -68 -52 21
-84 28 -78 18 4 -5 1 -9 -4 -9 -6 0 -11 6 -11 13 0 7 -22 20 -49 29 l-49 16
-39 -40 -38 -40 103 -99 102 -99 26 22 25 23 -82 78 c-45 43 -80 80 -77 82 2
2 54 -14 116 -37 l113 -41 39 38 40 39 -22 23 c-11 12 -26 20 -32 16 -6 -3 -8
-3 -4 2 7 7 -139 154 -153 155 -3 0 -14 -9 -25 -21z m203 -184 c0 -8 -4 -12
-9 -9 -5 3 -6 10 -3 15 9 13 12 11 12 -6z"/>
<path d="M2400 4115 l-25 -14 26 -1 c16 0 26 5 26 15 0 8 -1 15 -1 15 -1 -1
-12 -7 -26 -15z"/>
<path d="M3653 4114 c0 -8 11 -14 24 -14 13 0 43 -9 66 -20 l42 -21 -27 21
c-15 12 -30 21 -33 20 -3 0 -20 6 -38 14 -29 11 -34 11 -34 0z"/>
<path d="M2325 4085 l-30 -25 33 16 c17 8 32 20 32 25 0 13 -1 12 -35 -16z"/>
<path d="M4010 4095 c0 -5 5 -17 10 -25 5 -8 10 -10 10 -5 0 6 -5 17 -10 25
-5 8 -10 11 -10 5z"/>
<path d="M2045 4069 c-4 -6 -5 -12 -2 -15 2 -3 7 2 10 11 7 17 1 20 -8 4z"/>
<path d="M1231 4051 c-8 -5 -19 -7 -26 -5 -16 7 -39 -22 -29 -37 4 -8 3 -9 -4
-5 -8 5 -11 0 -8 -16 3 -13 5 -32 5 -43 1 -19 2 -19 16 2 8 12 14 32 13 44 -2
16 3 24 17 27 23 5 45 21 45 33 0 11 -11 11 -29 0z"/>
<path d="M1260 3987 c-28 -40 -50 -76 -49 -81 0 -5 -4 -12 -10 -15 -9 -6 180
-154 213 -167 7 -3 25 14 41 36 17 23 45 60 62 83 35 45 40 57 22 57 -5 0 -7
-5 -3 -12 4 -7 3 -8 -5 -4 -6 4 -9 11 -6 16 3 5 1 11 -4 14 -13 8 -44 -31 -35
-45 4 -7 3 -10 -3 -6 -13 8 -49 -42 -45 -61 2 -9 -2 -8 -15 2 -10 9 -27 22
-37 29 -18 13 -17 16 22 68 40 52 40 53 20 67 -18 13 -22 12 -44 -14 -13 -16
-21 -35 -19 -42 3 -7 1 -10 -4 -7 -6 3 -14 -2 -19 -11 -8 -14 -13 -14 -33 -4
-39 21 -39 31 -1 79 20 25 40 51 44 57 5 7 -2 15 -17 22 -23 11 -27 7 -75 -61z
m161 -50 c-10 -9 -11 -8 -5 6 3 10 9 15 12 12 3 -3 0 -11 -7 -18z"/>
<path d="M2016 4005 c-9 -26 -7 -32 5 -12 6 10 9 21 6 23 -2 3 -7 -2 -11 -11z"/>
<path d="M4050 4005 c0 -5 5 -17 10 -25 5 -8 10 -10 10 -5 0 6 -5 17 -10 25
-5 8 -10 11 -10 5z"/>
<path d="M2145 3954 c-18 -16 -22 -22 -9 -15 18 9 53 42 43 41 -2 -1 -17 -12
-34 -26z"/>
<path d="M3900 3976 c0 -2 8 -10 18 -17 15 -13 16 -12 3 4 -13 16 -21 21 -21
13z"/>
<path d="M4664 3932 l-131 -27 15 -33 c10 -21 21 -31 31 -27 48 14 68 13 67
-3 0 -10 5 -16 12 -14 8 1 11 -2 7 -8 -4 -6 1 -23 11 -38 20 -31 24 -67 7 -67
-24 0 -24 -15 0 -49 l24 -36 28 42 c16 23 28 48 28 55 0 6 5 11 11 10 6 -1 10
6 10 15 -1 10 2 16 6 15 4 -1 28 25 52 58 l46 59 -26 38 c-29 45 -25 45 -198
10z m136 -57 c-13 -14 -18 -29 -14 -41 4 -13 3 -15 -3 -6 -7 9 -15 6 -33 -13
l-24 -25 -21 37 c-22 40 -18 52 20 53 11 0 31 6 45 13 38 20 56 9 30 -18z"/>
<path d="M1963 3845 c-16 -52 -29 -95 -29 -95 1 0 19 21 41 48 21 26 29 39 18
29 l-22 -19 15 62 c8 35 13 64 11 66 -2 2 -17 -39 -34 -91z"/>
<path d="M2317 3933 c18 -2 50 -2 70 0 21 2 7 4 -32 4 -38 0 -55 -2 -38 -4z"/>
<path d="M3698 3933 c17 -2 47 -2 65 0 17 2 3 4 -33 4 -36 0 -50 -2 -32 -4z"/>
<path d="M2145 3921 c-48 -6 -95 -27 -95 -44 0 -4 10 -1 23 7 12 8 58 21 102
29 80 15 64 19 -30 8z"/>
<path d="M3913 3911 c84 -17 91 -20 145 -72 31 -30 62 -61 69 -69 9 -11 9 -3
-2 35 -20 70 -47 139 -39 100 16 -77 16 -87 1 -78 -8 4 -36 28 -63 51 -47 42
-52 44 -124 47 l-75 4 88 -18z"/>
<path d="M2690 3510 l0 -350 -350 0 -350 0 0 -350 0 -350 350 0 350 0 0 -350
0 -350 345 0 345 0 2 348 3 347 348 3 347 2 0 350 0 350 -350 0 -350 0 0 350
0 350 -345 0 -345 0 0 -350z"/>
<path d="M1781 3834 c0 -11 3 -14 6 -6 3 7 2 16 -1 19 -3 4 -6 -2 -5 -13z"/>
<path d="M4292 3820 c0 -14 2 -19 5 -12 2 6 2 18 0 25 -3 6 -5 1 -5 -13z"/>
<path d="M1524 3775 c-16 -24 -16 -27 2 -40 17 -13 21 -12 37 6 22 27 22 36
-3 49 -16 9 -22 6 -36 -15z"/>
<path d="M1761 3718 c-6 -46 -13 -121 -15 -168 -2 -47 -9 -98 -15 -114 -6 -16
-10 -30 -8 -33 2 -2 12 18 22 44 10 27 25 59 33 73 13 23 13 24 -2 6 -15 -19
-16 -16 -16 46 0 37 5 101 11 143 6 42 8 79 6 82 -3 2 -10 -33 -16 -79z"/>
<path d="M4305 3754 c3 -22 8 -87 11 -144 6 -82 5 -102 -5 -95 -10 6 -11 3 -1
-16 7 -13 15 -26 18 -29 8 -8 -8 252 -18 290 l-10 35 5 -41z"/>
<path d="M1114 3728 c-24 -29 -89 -158 -82 -163 5 -3 137 -65 196 -91 29 -13
57 -24 61 -24 10 0 35 58 34 77 0 7 3 11 7 8 4 -2 15 20 25 50 16 46 17 58 6
79 -8 14 -26 30 -42 36 -24 10 -32 9 -59 -10 l-30 -21 0 23 c0 32 -35 68 -65
68 -14 0 -34 -13 -51 -32z m41 12 c-3 -5 -1 -10 6 -10 7 0 10 -3 6 -6 -9 -9
-28 6 -22 17 4 5 8 9 11 9 3 0 2 -4 -1 -10z m31 -75 c10 -24 -5 -64 -27 -76
-17 -9 -20 -8 -14 2 6 9 2 11 -13 7 -14 -4 -20 -2 -15 5 4 6 0 8 -10 4 -13 -5
-10 4 9 33 27 41 60 53 70 25z m114 -63 c-11 -64 -27 -76 -65 -48 -16 12 -17
17 -6 44 10 24 21 32 44 35 18 2 33 5 33 5 1 1 -2 -15 -6 -36z"/>
<path d="M2118 3743 c7 -3 16 -2 19 1 4 3 -2 6 -13 5 -11 0 -14 -3 -6 -6z"/>
<path d="M4022 3721 c113 -39 187 -76 217 -109 l24 -27 -18 30 c-27 44 -95
135 -101 135 -3 0 4 -14 16 -31 12 -16 21 -32 19 -34 -2 -1 -42 10 -89 25 -47
15 -101 31 -120 34 -19 4 4 -7 52 -23z"/>
<path d="M1882 3688 c-52 -71 -60 -87 -31 -61 26 24 87 52 189 88 36 13 58 24
49 24 -14 1 -128 -33 -183 -55 -19 -7 -18 -5 3 24 12 18 20 32 17 32 -3 0 -23
-24 -44 -52z"/>
<path d="M4885 3660 c-185 -76 -168 -65 -151 -99 l16 -29 87 35 c49 19 97 37
108 40 11 3 -19 -34 -69 -85 l-89 -91 20 -48 c13 -29 26 -47 34 -45 16 4 240
92 251 99 5 2 1 17 -7 33 l-15 29 -95 -39 c-52 -22 -97 -40 -100 -40 -14 0 18
39 86 107 l73 72 -20 47 c-10 26 -23 48 -29 49 -5 2 -50 -14 -100 -35z m-19
-195 c-1 -8 -6 -18 -11 -22 -4 -4 -5 -2 -1 5 4 7 2 12 -6 12 -9 0 -9 3 2 10
19 12 19 13 16 -5z"/>
<path d="M4488 3445 c-4 -49 -15 -121 -23 -160 -25 -106 -30 -149 -18 -142 6
4 13 24 16 44 2 21 12 85 21 142 9 57 16 127 14 155 -2 42 -4 34 -10 -39z"/>
<path d="M1885 3472 c-38 -21 -88 -49 -110 -63 -22 -14 -45 -24 -51 -22 -6 2
-18 -14 -26 -36 l-16 -40 64 53 c35 29 91 68 124 87 115 65 126 81 15 21z"/>
<path d="M4215 3448 c49 -29 110 -74 136 -99 49 -48 50 -45 10 41 -15 33 -19
37 -14 15 l6 -29 -29 19 c-52 34 -178 105 -188 105 -5 0 30 -24 79 -52z"/>
<path d="M1581 3439 c0 -25 8 -97 20 -160 20 -109 21 -165 4 -269 -3 -19 -2
-28 1 -20 12 28 77 105 143 169 36 35 53 54 36 43 -16 -11 -60 -49 -97 -85
-38 -35 -68 -63 -68 -63 0 1 4 27 10 59 7 48 6 74 -11 142 -10 46 -23 116 -28
157 -7 60 -9 65 -10 27z"/>
<path d="M4337 3149 c89 -91 133 -147 133 -167 0 -8 2 -13 5 -11 7 7 -16 143
-26 153 -5 5 -6 -6 -2 -27 3 -21 3 -37 -1 -37 -3 0 -22 18 -42 40 -20 22 -60
59 -88 82 -45 37 -43 34 21 -33z"/>
<path d="M4621 3154 c0 -11 3 -14 6 -6 3 7 2 16 -1 19 -3 4 -6 -2 -5 -13z"/>
<path d="M1451 3144 c0 -11 3 -14 6 -6 3 7 2 16 -1 19 -3 4 -6 -2 -5 -13z"/>
<path d="M4596 3068 c-10 -35 -37 -104 -62 -155 -24 -51 -44 -107 -45 -125 -1
-76 -12 -74 -61 8 -26 44 -59 93 -73 109 -24 27 -23 25 4 -17 68 -102 121
-219 122 -267 1 -25 7 8 14 74 11 101 19 135 53 215 42 99 77 208 70 216 -3 2
-13 -24 -22 -58z"/>
<path d="M1461 3104 c0 -11 3 -14 6 -6 3 7 2 16 -1 19 -3 4 -6 -2 -5 -13z"/>
<path d="M1475 3056 c4 -16 22 -68 42 -115 19 -47 41 -102 48 -121 8 -19 15
-66 16 -105 0 -38 4 -95 9 -125 l7 -55 2 63 c1 71 23 130 83 231 21 35 37 66
34 68 -2 2 -26 -33 -54 -79 -28 -46 -56 -90 -61 -98 -7 -11 -10 7 -10 58 -1
40 -5 71 -9 68 -9 -5 -30 37 -82 164 -17 41 -28 62 -25 46z"/>
<path d="M1592 2925 c0 -16 2 -22 5 -12 2 9 2 23 0 30 -3 6 -5 -1 -5 -18z"/>
<path d="M4482 2900 c0 -14 2 -19 5 -12 2 6 2 18 0 25 -3 6 -5 1 -5 -13z"/>
<path d="M1039 2773 l-15 -48 -58 -3 -58 -3 44 -31 c24 -17 44 -32 46 -33 1
-1 -5 -21 -13 -45 -22 -62 -20 -65 29 -30 l44 32 34 -24 c56 -42 57 -42 40 13
l-16 51 24 18 c71 53 70 49 8 50 l-57 0 -12 43 c-18 61 -24 63 -40 10z"/>
<path d="M5000 2770 l-14 -50 -55 0 c-54 -1 -55 -1 -35 -18 11 -9 31 -24 44
-33 23 -15 23 -15 7 -64 -9 -27 -15 -50 -14 -52 2 -2 23 11 46 28 l43 30 31
-24 c57 -42 57 -42 41 15 -16 51 -16 52 8 69 69 51 68 48 7 49 l-56 0 -13 45
c-7 25 -16 47 -20 50 -4 2 -13 -18 -20 -45z"/>
<path d="M4609 2677 c-21 -34 -57 -88 -82 -120 -41 -53 -46 -56 -50 -35 -4 20
-4 20 -6 -5 0 -15 -9 -54 -18 -88 l-16 -60 -32 78 c-17 43 -39 92 -49 108 -21
36 -17 26 25 -80 25 -61 32 -96 33 -148 1 -73 2 -72 37 48 17 58 41 105 84
170 72 105 119 184 114 190 -2 2 -20 -24 -40 -58z"/>
<path d="M1460 2673 c18 -32 57 -94 87 -137 37 -55 61 -105 79 -165 30 -98 58
-181 47 -136 -5 17 -8 62 -7 100 0 57 7 87 38 160 20 50 39 97 42 105 8 28
-65 -124 -85 -175 l-19 -50 -12 29 c-6 16 -14 49 -17 74 -3 25 -9 38 -13 31
-9 -13 -78 76 -130 166 -17 30 -34 55 -37 55 -3 0 10 -26 27 -57z"/>
<path d="M1460 2387 c17 -26 79 -96 137 -155 87 -89 112 -121 144 -189 22 -46
42 -83 45 -83 3 0 0 9 -6 20 -12 23 1 141 25 232 26 95 26 104 0 34 -13 -37
-30 -95 -36 -127 -6 -32 -14 -59 -18 -59 -3 0 -17 27 -31 59 -13 33 -28 57
-32 55 -8 -5 -196 179 -236 231 -13 17 -9 9 8 -18z"/>
<path d="M4560 2333 c-36 -42 -89 -97 -119 -122 -48 -41 -53 -43 -47 -21 l6
25 -11 -25 c-6 -14 -23 -51 -38 -83 l-26 -58 -8 33 c-25 102 -50 188 -53 185
-2 -1 6 -45 16 -97 11 -52 20 -117 20 -145 l1 -50 40 80 c31 63 60 100 134
175 100 101 170 183 153 180 -2 -1 -32 -35 -68 -77z"/>
<path d="M4476 2017 c-38 -30 -149 -103 -214 -139 -17 -9 -36 -27 -42 -40
l-12 -23 21 22 c12 13 36 30 54 39 47 25 201 131 222 154 26 29 16 24 -29 -13z"/>
<path d="M1585 2021 c11 -13 65 -52 120 -88 55 -36 113 -74 128 -85 l29 -20
-12 21 c-6 12 -33 32 -59 46 -53 27 -123 71 -186 119 -31 23 -35 25 -20 7z"/>
<path d="M1941 2024 c0 -11 3 -14 6 -6 3 7 2 16 -1 19 -3 4 -6 -2 -5 -13z"/>
<path d="M4132 1990 c0 -19 2 -27 5 -17 2 9 2 25 0 35 -3 9 -5 1 -5 -18z"/>
<path d="M1123 1924 c-70 -36 -130 -68 -132 -70 -3 -2 2 -17 10 -33 l14 -30
35 18 c164 83 202 102 206 98 3 -3 -6 -13 -19 -24 -14 -10 -61 -52 -105 -93
l-80 -74 16 -33 c12 -25 20 -31 36 -27 44 11 202 44 230 49 38 6 26 -5 -51
-45 -34 -19 -59 -38 -56 -43 3 -6 1 -7 -5 -3 -13 8 -92 -30 -92 -44 0 -5 5
-20 11 -33 l11 -24 136 70 c76 39 139 72 141 74 5 4 -23 66 -44 99 l-14 21
-73 -19 c-40 -11 -89 -21 -108 -24 l-35 -5 30 26 c17 14 29 30 27 36 -1 6 1 8
6 6 4 -3 30 14 57 38 l50 43 -29 56 c-16 31 -33 56 -37 56 -5 0 -66 -30 -136
-66z"/>
<path d="M5066 1929 c-14 -34 -14 -44 -4 -58 11 -14 11 -14 -3 -4 -13 11 -18
9 -26 -10 l-11 -24 -94 45 c-51 24 -98 45 -105 46 -7 1 -16 5 -19 9 -11 11
-26 8 -19 -3 3 -5 2 -10 -3 -10 -5 0 -14 -11 -20 -25 -11 -24 -9 -26 36 -47
26 -12 70 -33 99 -46 29 -13 57 -20 64 -16 7 4 9 3 6 -3 -4 -6 12 -17 34 -26
l40 -16 39 85 c22 48 36 92 33 101 -4 11 -3 14 5 9 7 -4 12 -3 12 3 0 9 -31
31 -43 31 -3 0 -12 -18 -21 -41z"/>
<path d="M1931 1855 l-1 -110 -35 40 c-51 59 -42 36 13 -34 87 -112 123 -161
119 -161 -11 0 -148 50 -175 64 -17 9 -35 16 -39 16 -14 -1 70 -42 166 -81 78
-32 107 -51 180 -116 47 -43 78 -68 69 -57 -23 27 -64 136 -82 220 -8 38 -15
58 -15 44 -1 -24 22 -142 35 -183 9 -29 -93 60 -156 134 -52 63 -56 76 -70
249 l-7 85 -2 -110z"/>
<path d="M4136 1878 c-3 -29 -8 -80 -12 -113 -3 -32 -10 -68 -16 -80 -13 -26
32 26 72 85 31 45 31 45 3 13 -16 -18 -32 -33 -34 -33 -3 0 -3 41 -1 90 5 98
-3 122 -12 38z"/>
<path d="M2121 1734 c0 -11 3 -14 6 -6 3 7 2 16 -1 19 -3 4 -6 -2 -5 -13z"/>
<path d="M4646 1690 c-31 -47 -33 -66 -6 -82 11 -7 20 -16 20 -20 0 -15 62
-93 71 -90 5 1 8 -1 7 -5 -3 -11 35 -73 44 -73 4 0 8 -6 8 -14 0 -7 6 -19 14
-25 11 -9 18 -5 34 20 l20 32 -20 28 -20 27 33 55 c30 49 69 81 69 56 0 -5 9
-9 21 -9 16 0 19 4 14 23 -4 15 -3 18 3 9 7 -10 13 -7 26 13 10 15 16 28 14
30 -2 2 -68 15 -148 30 -80 14 -152 28 -161 31 -11 3 -25 -9 -43 -36z m117
-56 c56 -14 86 -35 87 -58 0 -6 -6 -2 -12 7 -12 16 -15 14 -33 -13 -11 -16
-23 -30 -27 -30 -3 0 -21 19 -40 43 -18 23 -40 47 -48 54 -21 17 -2 17 73 -3z"/>
<path d="M3941 1699 c-2 -42 -61 -243 -77 -260 -8 -8 -14 -19 -14 -23 0 -4 37
26 83 67 50 45 97 79 122 87 51 16 265 117 265 124 0 4 -26 -7 -57 -23 -65
-32 -204 -84 -210 -78 -2 3 9 20 24 38 15 19 -15 -8 -66 -59 -51 -51 -95 -91
-97 -89 -2 1 6 47 17 101 11 55 18 108 16 120 -4 17 -5 17 -6 -5z"/>
<path d="M1740 1706 c0 -3 9 -10 20 -16 11 -6 20 -8 20 -6 0 3 -9 10 -20 16
-11 6 -20 8 -20 6z"/>
<path d="M1348 1522 c-65 -48 -118 -89 -118 -92 0 -3 11 -18 23 -34 l24 -29
116 86 c64 48 118 91 122 97 3 6 -1 17 -9 26 -9 8 -16 20 -16 25 0 21 -31 4
-142 -79z m119 53 c0 -8 -4 -12 -9 -9 -5 3 -6 10 -3 15 9 13 12 11 12 -6z"/>
<path d="M4516 1509 c-8 -12 -49 -57 -92 -100 -75 -78 -76 -80 -59 -99 18 -20
19 -20 56 16 36 35 38 36 60 20 13 -9 20 -16 17 -16 -4 0 26 -31 67 -70 84
-79 105 -87 96 -37 -1 5 3 6 8 3 5 -3 14 0 20 8 9 11 -7 31 -79 96 -49 46 -90
89 -90 95 0 6 13 24 30 40 28 27 29 30 13 47 -21 23 -29 23 -47 -3z"/>
<path d="M1535 1460 c-17 -16 -60 -57 -97 -91 -37 -34 -65 -67 -61 -72 3 -6 2
-7 -3 -4 -6 3 -16 2 -23 -2 -10 -6 -6 -15 13 -36 l26 -28 57 53 c32 30 71 67
88 83 16 16 31 25 32 20 2 -5 -19 -61 -46 -124 l-49 -114 25 -27 c15 -15 30
-25 34 -22 4 2 11 -1 15 -7 5 -8 3 -9 -6 -4 -8 5 -11 3 -8 -6 3 -8 10 -14 16
-14 19 0 172 146 165 158 -3 5 -1 7 5 3 6 -3 23 5 38 19 l28 26 -26 26 -26 25
-72 -68 c-88 -85 -106 -96 -96 -63 4 13 8 30 8 37 1 6 4 12 8 12 4 0 22 38 40
85 l33 86 -38 39 c-22 22 -42 40 -45 40 -3 0 -19 -13 -35 -30z m209 -176 c3
-8 2 -12 -4 -9 -6 3 -10 10 -10 16 0 14 7 11 14 -7z m-114 -94 c0 -5 -5 -10
-11 -10 -5 0 -7 5 -4 10 3 6 8 10 11 10 2 0 4 -4 4 -10z"/>
<path d="M3681 1428 c-24 -58 -97 -176 -120 -196 -9 -7 -1 -5 17 5 26 14 43
38 76 108 44 90 61 135 53 135 -2 0 -14 -23 -26 -52z"/>
<path d="M2370 1466 c0 -5 20 -51 44 -102 24 -51 42 -95 39 -98 -3 -2 10 -12
29 -22 32 -16 33 -16 16 2 -9 11 -41 66 -72 124 -31 58 -56 101 -56 96z"/>
<path d="M2005 1400 c11 -5 27 -9 35 -9 9 0 8 4 -5 9 -11 5 -27 9 -35 9 -9 0
-8 -4 5 -9z"/>
<path d="M3784 1372 c-29 -20 -60 -43 -70 -50 -18 -12 -18 -12 1 -3 11 5 65
16 120 25 109 17 203 40 214 52 3 4 -1 5 -10 1 -36 -12 -229 -41 -235 -34 -4
3 4 15 17 26 39 33 18 23 -37 -17z"/>
<path d="M2264 1381 c19 -21 19 -21 -6 -21 -14 0 -63 7 -108 16 -45 8 -84 13
-87 11 -6 -7 120 -36 206 -47 40 -6 78 -13 85 -16 6 -3 0 3 -14 14 -13 11 -27
19 -31 16 -4 -2 -9 3 -12 10 -3 8 -16 20 -29 27 -23 12 -23 12 -4 -10z"/>
<path d="M2370 1316 c0 -8 71 -48 76 -43 3 2 -13 14 -36 26 -22 11 -40 19 -40
17z"/>
<path d="M3658 1294 c-16 -8 -28 -17 -28 -19 0 -11 19 -4 41 15 29 23 24 25
-13 4z"/>
<path d="M4276 1269 c-16 -13 -23 -25 -19 -33 5 -8 45 -53 90 -102 45 -49 89
-98 97 -109 14 -20 15 -20 45 10 31 29 31 29 11 50 -10 11 -56 62 -101 113
-45 50 -85 92 -89 92 -4 0 -19 -9 -34 -21z"/>
<path d="M1802 1219 c-13 -16 -20 -33 -17 -39 4 -6 2 -9 -3 -8 -13 4 -122
-144 -115 -156 3 -5 1 -6 -5 -2 -6 3 -14 2 -17 -4 -9 -15 15 -42 32 -36 8 3
11 2 8 -3 -9 -16 15 -24 31 -10 8 7 12 21 9 33 -3 12 -2 15 1 8 4 -10 14 -4
33 18 l26 31 47 -33 c45 -32 47 -35 33 -55 -8 -12 -12 -30 -9 -40 4 -13 3 -14
-4 -5 -7 11 -14 8 -31 -14 -21 -26 -21 -28 -4 -38 10 -5 24 -16 32 -23 11 -12
16 -11 32 3 21 19 26 40 7 28 -7 -4 -8 -3 -4 5 4 6 11 9 16 6 5 -3 14 5 21 17
12 22 25 40 100 139 l32 41 -29 24 c-16 13 -31 23 -34 24 -3 0 -20 -23 -39
-50 -19 -28 -36 -50 -38 -50 -8 0 -93 61 -93 67 0 3 16 28 36 55 20 27 35 50
33 52 -2 1 -17 12 -34 23 l-30 20 -23 -28z"/>
<path d="M2590 1185 c13 -16 -14 -18 -205 -17 l-80 0 70 -8 c59 -8 311 -11
303 -5 -2 1 -25 12 -52 24 -35 15 -45 17 -36 6z"/>
<path d="M3415 1164 c-27 -13 -41 -21 -30 -18 11 4 78 6 150 5 143 -3 165 8
33 16 -46 3 -84 9 -86 14 -5 12 -10 11 -67 -17z"/>
<path d="M4150 1164 c-39 -17 -160 -94 -160 -101 0 -17 44 -72 52 -67 7 4 8 2
4 -4 -9 -14 100 -182 118 -182 8 0 24 8 37 19 l23 19 -27 41 c-15 22 -27 44
-27 49 0 4 20 22 44 39 74 52 90 107 47 159 -17 21 -53 44 -68 44 -4 -1 -24
-8 -43 -16z m38 -76 c18 -18 14 -55 -8 -71 -11 -8 -18 -16 -15 -19 3 -3 -3 -5
-14 -4 -19 1 -61 45 -61 65 0 12 48 40 71 41 8 0 20 -5 27 -12z"/>
<path d="M3703 1163 c15 -2 37 -2 50 0 12 2 0 4 -28 4 -27 0 -38 -2 -22 -4z"/>
<path d="M3315 1130 c-13 -6 -15 -9 -5 -9 8 0 22 4 30 9 18 12 2 12 -25 0z"/>
<path d="M2765 1120 c11 -5 27 -9 35 -9 9 0 8 4 -5 9 -11 5 -27 9 -35 9 -9 0
-8 -4 5 -9z"/>
<path d="M2828 1103 c7 -3 16 -2 19 1 4 3 -2 6 -13 5 -11 0 -14 -3 -6 -6z"/>
<path d="M3228 1103 c7 -3 16 -2 19 1 4 3 -2 6 -13 5 -11 0 -14 -3 -6 -6z"/>
<path d="M2878 1093 c6 -2 18 -2 25 0 6 3 1 5 -13 5 -14 0 -19 -2 -12 -5z"/>
<path d="M3178 1093 c6 -2 18 -2 25 0 6 3 1 5 -13 5 -14 0 -19 -2 -12 -5z"/>
<path d="M2938 1083 c7 -3 16 -2 19 1 4 3 -2 6 -13 5 -11 0 -14 -3 -6 -6z"/>
<path d="M3118 1083 c6 -2 18 -2 25 0 6 3 1 5 -13 5 -14 0 -19 -2 -12 -5z"/>
<path d="M2991 1069 c17 -11 67 -10 94 0 13 6 -1 9 -44 9 -41 0 -59 -3 -50 -9z"/>
<path d="M2958 1053 c6 -2 18 -2 25 0 6 3 1 5 -13 5 -14 0 -19 -2 -12 -5z"/>
<path d="M3098 1053 c7 -3 16 -2 19 1 4 3 -2 6 -13 5 -11 0 -14 -3 -6 -6z"/>
<path d="M2866 1034 c-26 -9 -46 -17 -44 -19 2 -2 31 4 63 14 33 11 53 19 45
19 -8 1 -37 -6 -64 -14z"/>
<path d="M3135 1045 c6 -2 39 -12 75 -23 36 -12 74 -24 85 -27 15 -5 17 -4 5
3 -21 14 -140 52 -159 51 -9 0 -11 -2 -6 -4z"/>
<path d="M2780 1000 c-8 -5 -10 -10 -5 -10 6 0 17 5 25 10 8 5 11 10 5 10 -5
0 -17 -5 -25 -10z"/>
<path d="M3847 1003 c-9 -2 -15 -8 -12 -13 3 -4 -3 -6 -14 -3 -24 6 -101 -66
-101 -95 0 -32 20 -69 45 -82 16 -9 42 -10 94 -3 52 7 76 6 88 -2 21 -15 12
-39 -22 -61 -25 -16 -29 -16 -52 -2 -23 14 -29 14 -57 -1 -17 -9 -33 -18 -36
-19 -3 -2 8 -15 23 -28 50 -43 139 -24 204 42 43 45 44 84 3 126 -27 27 -36
30 -70 24 -22 -3 -57 -9 -78 -12 -28 -4 -43 -2 -55 10 -15 15 -15 18 1 36 17
21 66 27 77 11 4 -8 44 7 75 27 3 2 -8 15 -23 28 -27 23 -50 27 -90 17z"/>
<path d="M2285 937 c-11 -12 -18 -26 -17 -30 1 -5 -2 -6 -7 -3 -11 7 -153
-147 -145 -158 2 -3 1 -4 -3 -1 -8 6 -33 -14 -33 -26 0 -5 3 -8 8 -7 4 1 18
-4 31 -11 20 -11 26 -10 50 12 l26 24 63 -24 c59 -24 62 -26 62 -59 0 -30 5
-37 35 -50 19 -7 37 -14 40 -14 3 0 5 76 5 169 l0 169 -27 10 c-59 22 -68 22
-88 -1z m44 -117 c-1 -38 -6 -70 -11 -70 -17 0 -78 29 -78 38 0 5 11 19 25 32
14 13 23 25 20 28 -3 4 34 41 43 42 2 0 2 -31 1 -70z"/>
<path d="M3488 874 c-105 -32 -141 -154 -74 -254 47 -71 159 -84 239 -28 86
61 70 219 -29 275 -45 26 -70 27 -136 7z m94 -61 c28 -33 39 -63 40 -113 2
-58 -12 -77 -58 -86 -57 -10 -94 40 -96 128 -1 42 3 54 21 69 29 24 73 24 93
2z"/>
<path d="M2535 857 c-3 -12 -16 -81 -29 -154 -25 -142 -25 -143 28 -143 21 0
24 8 40 102 10 56 21 111 25 121 4 11 19 -32 40 -117 l33 -134 55 -7 c30 -4
56 -5 58 -3 4 3 55 285 55 301 0 5 -13 7 -30 5 -16 -2 -31 0 -33 6 -4 12 -8
-5 -33 -144 l-17 -95 -14 45 c-7 25 -23 83 -36 129 -24 91 -21 88 -104 104
-28 6 -34 3 -38 -16z"/>
<path d="M3255 832 l-40 -3 3 -62 4 -62 -55 -10 -55 -11 -6 36 c-3 19 -6 50
-6 68 0 34 -5 36 -57 26 -23 -5 -29 -11 -27 -27 2 -12 8 -82 15 -154 l11 -133
40 0 40 0 -3 68 -4 67 53 5 c30 3 55 3 57 0 2 -3 7 -33 10 -67 l7 -61 37 5
c20 3 38 7 40 9 2 2 -3 72 -10 156 l-14 153 -40 -3z"/>
</g>
</svg>
